<svg width="200" height="200" viewBox="0 0 200 200" fill="none" xmlns="http://www.w3.org/2000/svg">
<path d="M184.375 96.9551H187.188L190.313 97.5796L192.656 98.6725L194.375 99.7654L195.938 101.171L197.188 102.576L198.438 104.605L199.375 106.791L199.844 109.133L200 111.787L199.531 114.598L198.906 116.627L197.813 118.657L196.25 120.687L195.156 121.779L194.063 123.028L190.313 126.776L189.219 128.025L185.156 132.084L185 132.396H184.688L184.375 133.021L179.844 137.548L179.375 138.173H179.063L178.75 138.797L175.469 142.076L174.375 143.325L171.406 146.292L170.313 147.541L167.031 150.819L166.25 151.756H165.938L165.625 152.381L161.094 156.908L160 158.157L155.313 162.841L152.969 164.559L150.469 165.964L148.125 167.057L144.688 168.149L141.563 168.618L138.75 168.774L83.75 168.93L81.5625 170.804L79.2188 172.833L77.0313 174.707L76.4063 175.019L75.1563 173.926L25.1562 123.965V123.341L26.4063 122.248L32.5 116.159L33.75 115.066L36.0938 113.192L39.5313 111.007L42.0313 109.758L44.5313 108.665L47.3438 107.728L50.3125 106.947L53.5938 106.479L55.3125 106.323H60.1563L65.3125 106.947L69.8438 108.196L73.9063 109.914L76.5625 111.319L79.8438 113.505L82.3438 115.534L84.375 117.408L85.4688 118.501L85.7813 118.657L137.188 118.813L140.313 119.438L143.125 120.687L145 122.092L145.781 122.716L146.875 123.965L147.969 125.527L149.219 128.025L149.688 129.898L150 132.24L149.844 134.738L149.219 137.548L147.969 140.046L146.875 141.764L145 143.637L142.656 145.199L140.625 146.135L137.969 146.76L136.094 146.916L83.5938 147.072L82.3438 147.697L81.7188 148.477L81.4063 149.258V150.663L82.1875 152.224L83.2813 152.849L84.0625 153.005H136.25L139.531 152.693L142.188 152.068L144.531 151.132L147.188 149.726L149.375 148.009L151.25 146.135L152.813 144.106L154.219 141.608L155.313 138.797L155.938 135.831L156.094 134.114V131.459L155.625 128.181L155 126.151L153.75 123.028L176.094 100.702L178.125 99.1409L180.469 97.8918L182.5 97.2673L184.375 96.9551Z" fill="#2E2E2E"/>
<path d="M92.9688 22.0137H150.469L151.719 22.4821L152.5 23.2627L152.969 24.0433L153.125 24.824V114.91L150.469 117.564L150.156 118.032L149.531 117.876L147.656 116.315L144.688 114.598L141.406 113.349L140.625 113.036L140.469 87.1191L139.844 85.5578L138.75 84.7772L138.281 84.621H105.469L104.219 85.4017L103.594 86.1823L103.281 86.8068L103.125 112.412L102.969 112.568H90.625V24.824L91.0938 23.4188L91.875 22.4821L92.9688 22.0137Z" fill="#2E2E2E"/>
<path d="M52.3438 43.8721H84.375V108.977L83.5938 108.665L81.4063 107.104L79.0625 105.699L75.4688 103.825L71.7188 102.42L69.2188 101.639L65.9375 100.859L62.5 100.39L60.625 100.234H55.1563L50.625 100.703H50V46.6824L50.4688 45.2772L51.25 44.3405L52.3438 43.8721Z" fill="#2E2E2E"/>
<path d="M13.75 123.185L15.3125 123.341L16.7188 124.277L75.9375 183.45L76.7188 184.699V186.573L75.9375 187.978L74.8438 188.914L73.75 190.164H73.4375V190.476H73.125L72.8125 191.1L71.7188 192.037L70.7813 193.13L69.8438 193.911L69.0625 194.847L67.5 196.409H67.1875L66.875 197.033L66.25 197.658H65.9375L65.625 198.282H65.3125V198.594L64.0625 199.531L62.8125 200L61.5625 199.843L60.1563 199.063L0.78125 139.734L0.15625 138.641L0 138.017V136.924L0.78125 135.363L12.3438 123.809L13.75 123.185Z" fill="#2E2E2E"/>
<path d="M159.375 43.8721H191.094L192.344 44.3405L193.125 45.1211L193.594 46.0579L193.75 46.6824V92.2718L192.344 91.8034L190 91.1789L187.656 90.8666H183.75L180.781 91.335L177.969 92.2718L175.469 93.5208L173.281 95.0821L171.875 96.3311H171.563L171.406 96.7995L170.156 97.8924L160.938 107.104L159.844 108.353L159.375 108.509V43.8721Z" fill="#2E2E2E"/>
<path d="M109.375 90.71H134.375V112.568H109.375V90.71Z" fill="#2E2E2E"/>
<path d="M121.406 0L122.969 0.156128L124.063 0.78064L124.688 1.71741L125 2.81031V9.52381H141.25L142.656 10.1483L143.594 11.7096L143.75 12.6464V15.6128L143.438 15.7689H100.156L99.8438 14.8322L100 12.3341L100.469 10.929L101.25 9.9922L102.344 9.52381L118.594 9.36768L118.75 2.34192L119.531 0.936768L120.313 0.312256L121.406 0Z" fill="#2E2E2E"/>
<path d="M125 56.3623H140.625V62.4513L140.313 62.6074H125L124.844 60.7339L125 56.3623Z" fill="#FEFEFE"/>
<path d="M125 43.8721H140.625V49.9611L140.313 50.1172H125L124.844 48.2437L125 43.8721Z" fill="#FEFEFE"/>
<path d="M125 68.8525H140.625V74.9415L140.313 75.0977H125V68.8525Z" fill="#FEFEFE"/>
<path d="M103.125 68.8525H118.75V74.9415L118.438 75.0977H103.125V68.8525Z" fill="#FEFEFE"/>
<path d="M103.125 56.3623H118.75V62.4513L118.438 62.6074H103.125V56.3623Z" fill="#FEFEFE"/>
<path d="M103.125 43.8721H118.75V49.9611L118.438 50.1172H103.125V43.8721Z" fill="#FEFEFE"/>
<path d="M125 31.3818H140.625V37.4708L140.313 37.627H125V31.3818Z" fill="#FEFEFE"/>
<path d="M103.125 31.3818H118.75V37.4708L118.438 37.627H103.125V31.3818Z" fill="#FEFEFE"/>
<path d="M68.75 87.5879H78.125V93.6769L77.9688 93.833H68.75V87.5879Z" fill="#FEFEFE"/>
<path d="M56.25 87.5879H65.625V93.6769L65.4688 93.833H56.25V87.5879Z" fill="#FEFEFE"/>
<path d="M178.125 75.0977H187.5V81.1867L187.344 81.3428H178.125V75.0977Z" fill="#FEFEFE"/>
<path d="M68.75 75.0977H78.125V81.1867L77.9688 81.3428H68.75V75.0977Z" fill="#FEFEFE"/>
<path d="M56.25 75.0977H65.625V81.1867L65.4688 81.3428H56.25V75.0977Z" fill="#FEFEFE"/>
<path d="M178.125 62.6074H187.5V68.6964L187.344 68.8525H178.125V62.6074Z" fill="#FEFEFE"/>
<path d="M165.625 62.6074H175V68.6964L174.844 68.8525H165.625V62.6074Z" fill="#FEFEFE"/>
<path d="M68.75 62.6074H78.125V68.6964L77.9688 68.8525H68.75V62.6074Z" fill="#FEFEFE"/>
<path d="M56.25 62.6074H65.625V68.6964L65.4688 68.8525H56.25V62.6074Z" fill="#FEFEFE"/>
<path d="M178.125 50.1172H187.5V56.2062L187.344 56.3623H178.125V50.1172Z" fill="#FEFEFE"/>
<path d="M165.625 50.1172H175V56.2062L174.844 56.3623H165.625V50.1172Z" fill="#FEFEFE"/>
<path d="M68.75 50.1172H78.125V56.2062L77.9688 56.3623H68.75V50.1172Z" fill="#FEFEFE"/>
<path d="M56.25 50.1172H65.625V56.2062L65.4688 56.3623H56.25V50.1172Z" fill="#FEFEFE"/>
<path d="M165.625 75.0977H175V81.1867L174.688 81.3428H165.625V75.0977Z" fill="#FEFEFE"/>
</svg>
