<svg width="200" height="200" viewBox="0 0 200 200" fill="none" xmlns="http://www.w3.org/2000/svg">
<path d="M194.366 12.0312H196.713L198.122 12.5L198.904 13.125L199.687 14.2187L200 15.1562V101.719L199.374 104.219L198.278 105.937L196.087 108.75L194.366 110.781L192.645 112.969L189.828 116.406L188.106 118.594L185.915 121.25L184.194 123.437L182.159 125.937L180.438 128.125L178.873 130L177.621 131.562L175.9 133.75L173.709 136.406L171.987 138.594L169.17 142.031L166.666 145.156L164.632 147.656L162.911 149.844L161.502 151.562L159.781 153.75L158.059 155.781L157.746 156.25L157.59 164.375L157.433 164.531H105.79V117.187L106.416 116.25L108.137 114.375L109.546 112.656L110.954 111.094L112.363 109.375L117.997 102.812L119.405 101.094L121.283 98.9061L123.317 96.5624L125.195 94.3749L126.604 92.6562L128.795 90.3124L130.829 88.5937L133.646 86.8749L136.306 85.6249L138.81 84.8437L142.41 84.2187H146.635L150.391 84.8437L153.521 85.9374L156.807 87.6562L157.746 88.4374L158.059 89.3749L157.903 90.4687L156.025 92.6562L153.834 95.3124L152.425 96.8749L151.017 98.5936L147.261 102.969L145.853 104.687L144.444 106.25L143.036 107.969L141.627 109.531L139.906 111.719L138.028 113.75L136.776 115.312L135.68 116.719H135.368L135.055 117.344L133.646 118.906L132.238 120.625L131.142 122.031L130.36 123.594L130.047 124.844V125.937L130.673 127.812L131.612 129.219L132.864 130.312L134.429 130.937H137.245L139.123 130.156L140.688 128.75L142.41 126.719L144.288 124.531L146.009 122.5L147.418 120.781L148.826 119.219L150.234 117.5L151.643 115.937L153.051 114.219L155.086 111.875L155.242 111.562H155.555L155.868 110.937L159.624 106.562L161.033 104.844L162.285 103.437L163.693 101.719L165.101 100.156L166.51 98.4374L170.266 94.0624L171.674 92.3437L173.083 90.7812L174.022 89.5312L174.178 35.1562L174.335 31.5625L174.804 28.5937L175.9 25.3125L177.465 22.3437L179.342 19.8437L180.907 18.125L182.159 17.0312L184.037 15.625L186.541 14.2187L188.732 13.2812L192.175 12.3437L194.366 12.0312Z" fill="#2E2E2E"/>
<path d="M3.12989 12.0312H5.32081L7.82473 12.3437L11.2676 13.2812L14.3975 14.6875L17.2144 16.5625L18.7793 17.9687L19.8748 18.9062L21.2833 20.625L22.8482 22.9687L24.1002 25.4687L25.1956 28.75L25.5086 30.625L25.6651 32.3437L25.8216 89.2187L26.4476 90.1562L28.482 92.4999L29.8905 94.2187L31.2989 95.7811L32.7074 97.4999L34.7418 99.8436L36.1502 101.562L37.5587 103.125L38.8106 104.687L40.2191 106.25L41.6275 107.969L43.662 110.312L47.1049 114.375L48.9828 116.562L50.3912 118.281L51.9562 120L53.2081 121.562L54.6166 123.125L56.025 124.844L57.7465 126.875L59.7809 129.219L61.0329 130.312L62.7543 130.937H65.4147L67.1362 130.312L68.7011 128.906L69.6401 127.031L69.7966 126.562V124.062L68.5446 121.562L64.4757 116.875L63.0673 115.156L61.0329 112.812L59.1549 110.625L57.7465 108.906L55.7121 106.562L53.8341 104.375L52.4257 102.656L50.3912 100.312L48.6698 98.2811L46.6354 95.9374L45.2269 94.2187L43.1925 91.8749L42.2535 90.6249L41.9405 89.9999V89.0624L42.5665 88.1249L44.7574 86.7187L47.2613 85.6249L48.9828 84.9999L52.1127 84.3749L53.3646 84.2187H57.7465L61.8153 84.9999L64.7887 86.0937L67.7621 87.6562L69.6401 89.0624L71.6745 90.7812L73.8654 93.1249L75.2739 94.8437L77.3083 97.1874L78.7168 98.9061L80.2817 100.625L81.6901 102.344L83.4116 104.375L89.0454 110.937L90.4538 112.656L92.0188 114.375L93.4272 116.094L94.2097 117.187V159.375L94.0532 164.375L93.8967 164.531H42.41L42.2535 156.406L40.3756 153.906L38.6541 151.875L36.9327 149.687L32.8638 144.687L31.1424 142.5L29.734 140.781L27.6995 138.281L25.9781 136.094L24.5696 134.375L22.5352 131.875L21.2833 130.312L19.2488 127.812L17.5274 125.625L15.493 123.125L14.241 121.562L12.2066 119.062L10.9546 117.5L9.23318 115.312L7.04225 112.656L5.32081 110.469L3.59937 108.437L1.56495 105.781L0.469484 104.062L0 102.187V15L0.782473 13.4375L2.19092 12.3437L3.12989 12.0312Z" fill="#2E2E2E"/>
<path d="M98.4351 0H101.565L105.008 0.624999L108.138 1.875L110.172 3.125L112.52 4.99999L113.615 6.24999L115.18 8.43749L116.432 10.9375L117.058 12.6562L117.684 16.0937V19.5312L116.901 23.4375L115.65 26.25L114.554 27.9687L113.302 29.5312L111.581 31.25L109.077 32.9687L106.573 34.2187L104.695 34.8437L102.504 35.1562L100.47 35.3125L106.729 36.0937L110.642 37.1875L114.085 38.5937L116.745 40L118.936 41.4062L120.97 42.9687L123.161 44.8437L124.726 46.4062L126.448 48.5937L128.013 50.7812L129.734 53.7499L131.299 57.3437L132.551 61.5624L133.02 64.9999L133.177 67.0312V77.0312L132.864 78.7499L132.394 79.6874L130.986 81.2499L129.108 82.1874L127.7 82.4999H71.9876L70.4226 82.0312L69.0142 81.2499L67.6057 79.8437L66.9797 78.4374L66.8232 77.6562V66.4062L67.2927 62.0312L68.5447 57.8124L69.7966 54.6874L71.3616 51.7187L72.6135 49.8437L74.022 47.9687L76.0564 45.6249L77.4649 44.2187L79.1863 42.8124L81.2207 41.25L84.3506 39.375L87.637 37.8125L90.9234 36.7187L93.4273 36.0937L96.8702 35.625L99.6871 35.3125L96.0877 35L94.2098 34.5312L91.3929 33.2812L89.5149 32.0312L87.7935 30.625L86.2286 29.0625L84.6636 26.7187L83.4117 24.2187L82.7857 22.1875L82.3162 19.375V16.0937L82.7857 13.2812L83.4117 11.25L84.6636 8.74999L85.9156 6.87499L87.324 5.31249L88.576 4.06249L90.7669 2.5L93.2708 1.25L95.4617 0.468749L98.4351 0Z" fill="#2E2E2E"/>
<path d="M105.947 176.25H170.266L170.422 176.406V188.906L170.266 195.469L169.64 197.031L168.544 198.437L166.823 199.531L165.884 199.844L164.632 200H105.79V176.406L105.947 176.25Z" fill="#2E2E2E"/>
<path d="M29.5776 176.25H94.0534L94.2099 186.875V193.437L94.0534 200H35.2114L33.6465 199.687L31.7686 198.75L30.5166 197.344L29.7341 195.781L29.5776 194.687V176.25Z" fill="#2E2E2E"/>
</svg>
