<svg width="200" height="200" viewBox="0 0 200 200" fill="none" xmlns="http://www.w3.org/2000/svg">
<path d="M86.7807 0H94.9715L100.052 0.103681L100.156 0.311042V39.3987L100.052 39.606L93.9347 40.0207L89.9948 40.5391L86.366 41.2649L82.8409 42.198L79.4194 43.3385L76.5163 44.479L73.4059 45.9305L70.8139 47.2784L68.5329 48.6262L66.7703 49.7667L65.1115 50.9072L63.4526 52.1514L62.001 53.2919L60.5495 54.536L59.5127 55.4692L58.6833 56.1949L55.7802 59.098L55.0544 59.9274L53.8103 61.379L52.3587 63.1415L51.0109 65.0078L49.7667 66.7703L48.5225 68.7403L46.9673 71.436L46.0342 73.1985L44.6864 76.1016L43.3385 79.5231L42.198 82.9445L41.3686 86.1586L40.6428 89.6838L40.2281 92.4832L39.9171 95.3862L39.8134 97.2525V102.955L40.1244 106.791L40.5391 109.902L41.1612 113.116L41.9907 116.433L42.9238 119.44L44.168 122.758L45.5158 125.765L47.071 128.875L48.5225 131.363L49.2483 132.504L50.4925 134.37L51.8403 136.236L53.0845 137.792L54.0176 138.932L55.2618 140.384L56.0912 141.213L56.817 142.043L58.7869 144.012L59.6164 144.738L60.7569 145.775L61.8974 146.708L63.3489 147.849L65.3188 149.3L67.8072 150.959L69.155 151.788L71.3323 153.033L74.1317 154.484L77.4495 155.936L80.2488 156.973L82.3224 157.698L86.2623 158.735L89.9948 159.461L93.52 159.979L95.9046 160.187L97.8745 160.29H102.125L105.443 160.083L109.694 159.565L113.323 158.839L116.226 158.113L119.233 157.18L121.825 156.247L124.313 155.21L127.32 153.758L129.705 152.514L132.297 150.959L133.541 150.13L135.614 148.678L137.377 147.33L139.139 145.879L140.176 144.946L141.006 144.22L141.731 143.494H141.939V143.287L142.768 142.561L143.39 141.835H143.598L143.805 141.42L145.049 140.176L145.982 139.036L147.227 137.584L148.471 135.925L149.819 134.059L151.374 131.674L152.618 129.497L153.862 127.216L155.106 124.624L156.35 121.617L157.491 118.403L158.32 115.5L159.15 112.079L159.772 108.243L160.083 105.443L160.394 100.052L160.498 99.9482H199.793L200 100.052V113.634L196.268 115.086L190.358 117.367L185.485 119.233L183.618 119.959L183.307 120.892L182.374 124.209L181.234 127.838L180.093 130.949L178.849 133.955L177.19 137.584L175.842 140.28L174.806 142.146L173.665 144.116L173.25 144.842L173.561 145.775L174.909 148.782L176.464 152.307L178.123 156.039L179.679 159.565L180.197 160.809V161.327L161.431 180.093L161.327 180.301L160.394 179.99L157.076 178.538L145.36 173.354L144.738 173.25L142.457 174.598L139.969 175.946L137.584 177.19L133.748 178.953L130.638 180.197L127.735 181.234L124.832 182.167L121.099 183.204L120.062 183.515L118.922 186.314L117.47 190.15L115.915 194.194L114.152 198.756L113.738 199.793L113.53 200H86.5734L86.2623 199.482L84.9145 196.06L83.2556 191.706L81.2856 186.625L80.1451 183.618L79.4194 183.307L75.5832 182.271L71.747 181.026L68.9476 179.99L65.9409 178.745L63.4526 177.605L60.8605 176.361L57.9575 174.806L55.4692 173.354L54.9508 173.25L50.8035 175.117L39.5023 180.093L38.8802 180.301L19.803 161.223L20.114 160.29L26.3349 146.293L26.8533 145.153L26.7496 144.635L25.8165 142.976L24.7797 141.213L23.0171 137.792L21.6693 134.992L20.114 131.26L18.7662 127.527L17.4184 123.276L16.6926 120.477L16.4852 119.959L7.56869 116.537L3.52514 114.982L0.311042 113.738L0.103681 113.53L0 95.4899V86.7807L0.103681 86.4697L2.90306 85.3292L16.3815 80.1451L16.5889 80.0415L17.6257 76.2053L18.5588 73.1985L19.6993 69.8808L20.8398 67.0814L22.2913 63.7636L24.2613 59.8237L25.4018 57.7501L26.7496 55.4692L26.8533 55.0544L25.5054 51.944L23.6392 47.7968L20.7361 41.2649L19.803 39.0876L19.9067 38.6729L21.2545 37.4287L21.6693 36.9103H21.8766V36.703H22.084V36.4956H22.2913V36.2882H22.4987V36.0809H22.7061V35.8735H22.9134V35.6661H23.1208L23.3281 35.2514H23.5355L23.7429 34.8367L33.6962 24.8834H33.9036L34.1109 24.4686H34.3183L34.5257 24.0539H34.733L34.9404 23.6392H35.1477V23.4318H35.3551V23.2245H35.5625V23.0171H35.7698V22.8097H35.9772V22.6024H36.1846V22.395H36.3919L36.5993 21.9803L38.2582 20.3214H38.4655L38.6729 19.9067L39.0876 19.803L42.198 21.1509L52.4624 25.7128L54.8471 26.7496L55.2618 26.8533L57.0244 25.8165L59.2017 24.5723L62.6231 22.8097L65.5262 21.4619L68.7403 20.114L72.7838 18.6625L76.8274 17.4184L80.1451 16.5889L80.4562 15.6558L81.9077 11.8196L83.8777 6.73924L85.4329 2.6957L86.366 0.207361L86.7807 0Z" fill="#2E2E2E"/>
<path d="M96.7339 53.9141H103.162L106.272 54.2251L109.383 54.7435L112.39 55.4693L115.085 56.2987L117.781 57.3355L119.855 58.2687L122.343 59.5128L124.106 60.5496L126.594 62.2085L128.149 63.349L129.808 64.6969L130.845 65.63L131.674 66.3557L134.474 69.1551L135.407 70.2956L136.547 71.6435L137.895 73.5097L139.139 75.376L140.072 76.9312L141.42 79.4195L142.768 82.3226L143.909 85.433L144.738 88.2324L145.36 90.9281L145.878 94.0385L146.19 97.5636V102.437L145.982 105.236L145.464 108.657L144.842 111.561L143.909 114.671L142.975 117.263L141.628 120.27L140.28 122.862L138.932 125.039L138.102 126.283L137.066 127.735L135.925 129.186L134.681 130.638L134.474 130.949H134.266L134.059 131.364L131.156 134.267L130.326 134.992L128.564 136.444L126.594 137.895L124.209 139.451L121.825 140.798L120.166 141.628L118.196 142.561L115.5 143.598L112.908 144.427L110.005 145.153L107.206 145.671L103.68 146.086L102.333 146.19H97.5633L94.1418 145.879L90.9277 145.36L88.232 144.738L85.2253 143.805L82.6333 142.872L80.0413 141.732L78.0713 140.695L75.894 139.451L73.7167 137.999L72.2652 136.962L70.6063 135.614L69.4658 134.681L67.8069 133.126L65.837 131.156L64.9039 130.016L63.6597 128.564L62.2082 126.594L60.964 124.728L60.0309 123.173L58.9941 121.306L57.5426 118.3L56.5058 115.604L55.6763 113.116L55.0542 110.731L54.3285 106.999L53.9137 103.266L53.8101 100.985V98.9115L54.0174 95.49L54.4321 92.3796L55.1579 88.8544L56.091 85.6403L57.0242 83.0483L58.061 80.6637L58.8904 79.0048L60.0309 76.8275L61.2751 74.8576L62.6229 72.8876L63.6597 71.5398L63.7634 71.3324H63.9708L64.1781 70.9177L65.1113 69.7772L66.1481 68.6367L66.2517 68.4294H66.4591L66.6665 68.0146L68.3254 66.3557L69.1548 65.63L70.1916 64.6969L71.6431 63.5564L72.991 62.5196L75.7904 60.6533L78.2787 59.2018L80.5597 58.0613L82.737 57.1282L85.5363 56.0914L88.0247 55.3656L90.7204 54.7435L93.8308 54.2251L96.7339 53.9141ZM97.4596 60.6533L93.6234 61.068L90.202 61.7938L87.4026 62.6232L84.7069 63.66L83.048 64.3858L81.0781 65.4226L79.6265 66.2521L77.1382 67.911L75.894 68.8441L74.8572 69.6735L73.8204 70.6066L72.991 71.3324L71.021 73.3023V73.5097H70.8137L69.8806 74.6502L68.7401 75.998L67.4959 77.7606L66.6665 79.0048L65.2149 81.4931L63.7634 84.4999L62.6229 87.5066L61.8972 89.8913L61.2751 92.6906L60.8603 95.49L60.653 97.5636V102.644L61.0677 106.273L61.6898 109.383L62.4156 111.975L63.3487 114.567L64.3855 116.952L65.4223 119.026L66.6665 121.099L68.2217 123.38L69.1548 124.521L69.5695 125.143L69.9842 125.246L70.6063 123.587L71.4358 121.929L72.4726 120.062L73.4057 118.611L74.2351 117.47L75.272 116.122L76.5161 114.671L78.2787 112.908L79.1081 112.183L80.5597 111.042L82.4259 109.694L84.3959 108.554L86.7805 107.31L88.8541 106.48L91.0314 105.754L93.0014 105.236L95.2823 104.821L97.1486 104.614L99.1185 104.51H100.985L103.888 104.718L105.961 105.029L108.346 105.547L110.731 106.273L113.219 107.31L114.982 108.139L117.159 109.383L118.818 110.524L120.166 111.561L121.617 112.805L122.861 113.945L123.587 114.671L124.313 115.5L125.661 117.159L127.112 119.233L128.564 121.721L129.704 124.106L130.119 125.143L130.534 125.039L131.571 123.795L132.918 121.825L133.955 120.27L135.407 117.574L136.755 114.567L137.999 110.835L138.621 108.346L139.139 105.236L139.347 103.37L139.45 101.711V98.3931L139.243 95.6974L138.828 92.7943L138.31 90.4097L137.584 87.9213L136.547 85.0183L135.407 82.5299L134.266 80.3526L132.711 77.8643L131.363 75.998L129.912 74.2355L128.667 72.8876L126.387 70.6066L125.246 69.6735L123.691 68.4294L121.617 66.9778L119.544 65.7337L117.159 64.4895L115.189 63.5564L112.286 62.5196L109.798 61.7938L106.895 61.1717L104.717 60.8607L102.436 60.6533H97.4596Z" fill="#2E2E2E"/>
<path d="M98.4967 67.7031H101.607L103.577 68.0142L105.651 68.6363L107.517 69.4657L109.28 70.5025L110.731 71.643L111.975 72.8872L113.012 74.0276L114.049 75.5829L115.189 77.7601L115.915 79.9374L116.226 81.4927L116.433 83.5663V84.7068L116.122 87.1951L115.604 89.165L114.982 90.7202L113.945 92.6902L112.908 94.1417L111.975 95.1785L111.353 95.9043L110.213 96.8374L108.761 97.8742L107.102 98.8073L105.547 99.4294L103.37 100.051L101.503 100.363H98.4967L96.5268 100.051L94.4532 99.4294L92.7943 98.7036L91.1354 97.7705L89.7876 96.7337L88.7508 95.8006L87.6103 94.6601L86.5735 93.3122L85.744 91.9644L84.9146 90.3055L84.3962 88.854L83.9815 87.2988L83.6704 85.1215V83.0479L83.9815 80.7669L84.3962 79.2117L85.0183 77.5528L85.8477 75.8939L86.5735 74.7534L87.6103 73.4056L88.5434 72.3688L89.6839 71.3319L91.4465 70.0878L92.898 69.2583L94.9716 68.4289L96.5268 68.0142L98.4967 67.7031Z" fill="#2E2E2E"/>
<path d="M155.003 35.3555H155.936L156.765 35.7702L157.906 36.807L158.113 36.9107V37.118L158.528 37.3254L159.565 38.3622L160.187 38.8806V39.088H160.394V39.2953H160.601L161.327 40.1248L162.26 41.0579L162.675 41.7837V43.0278L161.846 44.1683L147.123 58.891L146.086 59.4094H145.049L144.22 58.9947L141.006 55.7806L140.176 55.0548L139.658 54.6401V54.4327L139.243 54.2253L138.621 53.4996L138.31 52.5665L138.517 51.5297L139.347 50.4928L139.658 50.1818H139.865L140.073 49.7671H140.28L140.487 49.3524H140.695L140.902 48.9376L153.758 36.0812L154.692 35.4591L155.003 35.3555Z" fill="#2E2E2E"/>
<path d="M174.806 60.8604L175.739 60.964L176.361 61.3788L176.983 62.1045L178.435 65.1113L179.99 68.8438L180.094 69.7769L179.575 70.8137L178.953 71.3321L176.879 72.2652L173.043 73.8204L169.103 75.4793L160.809 78.9008L158.943 79.6266L158.113 79.7302L157.284 79.4192L156.662 78.9008L155.936 77.4493L154.588 74.3388L153.344 71.7468L153.24 70.9174L153.655 69.8806L154.381 69.2585L156.662 68.2217L160.498 66.6665L167.963 63.556L170.97 62.3119L173.769 61.1714L174.806 60.8604Z" fill="#2E2E2E"/>
<path d="M127.424 19.0771H128.357L130.223 19.6992L133.126 20.8397L135.614 21.9802L136.236 22.4986L136.651 23.3281V24.2612L136.133 25.7127L135.096 28.201L131.363 37.2213L129.601 41.4722L128.564 43.9605L127.942 44.9973L126.905 45.5157L126.283 45.6194L124.624 44.9973L122.24 43.9605L119.233 42.82L118.403 42.3016L117.989 41.7832L117.781 41.2648V40.3317L118.403 38.6728L119.44 36.1845L121.41 31.4151L125.661 21.1508L126.283 19.9066L126.801 19.3882L127.424 19.0771Z" fill="#2E2E2E"/>
</svg>
