<svg width="200" height="200" viewBox="0 0 200 200" fill="none" xmlns="http://www.w3.org/2000/svg">
<path d="M46.5337 82.5H49.669L55.4446 84.5312L59.7351 86.0937L60.2301 86.4062L56.5997 103.594L55.9397 106.406L55.7747 173.594V189.844L55.4446 192.187L54.7846 193.906L53.7945 195.625L51.9793 197.5L49.669 198.906L47.6888 199.687L45.8737 200H43.3984L40.5931 199.375L37.9529 197.969L36.4677 196.719L35.1476 195L34.1575 193.125L33.6624 191.406L33.4974 190.312V112.656L31.1872 112.344L29.537 112.187L29.372 191.25L28.7119 193.594L27.7218 195.312L26.5667 196.719L25.0816 197.969L22.7713 199.219L20.6261 199.844L19.636 200H17.1608L14.5205 199.375L12.2103 198.281L10.3951 196.875L9.07495 195.312L7.91983 193.125L7.42478 191.406L7.25977 189.844V103.75L7.5898 100.937L10.7251 86.0937L11.2202 85L18.9759 84.5312L29.372 83.75L35.9727 83.2812L46.5337 82.5Z" fill="#2E2E2E"/>
<path d="M148.35 100.156H163.202L163.367 101.094V122.5L164.687 121.25L165.512 121.406L166.832 122.344L167.657 122.5L168.647 121.875L169.473 121.25H170.298L171.618 122.344L172.443 122.5L174.258 121.094L175.083 121.406L176.568 122.5L177.063 122.656V100.312L177.393 100.156H198.185L200.001 100.312V147.187L199.836 147.344H140.265L140.1 138.125V113.906L140.265 100.312L148.35 100.156Z" fill="#2E2E2E"/>
<path d="M140.265 151.719H163.202L163.367 151.875V173.75L163.532 174.062L164.852 172.656L166.007 173.281L166.832 174.062L167.492 174.219L169.638 172.812L170.628 173.125L171.783 174.062L172.608 173.906L174.093 172.812L174.918 172.969L176.898 174.219L177.063 151.719H200.001V198.75H140.1V158.594L140.265 151.719Z" fill="#2E2E2E"/>
<path d="M76.2373 151.719H99.1746L99.3396 174.062L100.495 172.812L101.485 172.969L102.97 174.219L103.63 174.062L105.61 172.656L106.6 173.281L107.755 174.219H108.416L108.581 173.75L109.901 172.812L110.891 172.969L112.541 174.062L112.871 174.219L112.706 171.406V151.875L112.871 151.719H135.808V198.75H76.0723V159.687L76.2373 151.719Z" fill="#2E2E2E"/>
<path d="M76.2373 100.312H99.1746V122.5L100.33 121.562L100.495 121.25L101.485 121.406V121.719L102.145 122.031L102.805 122.5L103.795 122.344L105.28 121.25H106.105L107.425 122.344L108.251 122.5L109.901 121.25H110.726L112.541 122.5H112.706V101.562L112.871 100.312H135.808V147.344H76.2373L76.0723 145.156V134.219L76.2373 100.312Z" fill="#2E2E2E"/>
<path d="M24.4225 39.0625H28.0528L30.3631 39.5312L44.3895 42.1875L54.9505 44.2187L59.736 45.1562L62.2113 45.625L64.3565 46.5625L65.0166 46.875L64.8515 47.5L62.2113 51.5625L57.2608 59.0625L54.6205 63.125L53.6304 64.5312L52.8053 64.8437L45.7096 65.3125L35.3136 66.0937L26.4027 66.7187L20.6271 67.1875H20.132L20.297 66.4062L22.7723 61.25L23.9274 58.9062L21.7822 59.0625L19.472 63.75L17.3267 68.9062L17.1617 69.2187L22.4423 68.75L45.5446 67.0312L58.4159 66.0937L65.5116 65.625L67.6568 65.7812L69.307 66.25L70.9572 67.3437L72.1123 68.5937L72.9374 70.1562L73.2674 71.5625V73.2812L72.7723 75.3125L71.7822 76.7187L71.1222 77.5L69.637 78.4375L68.1519 79.0625L65.0166 79.5312L57.0958 80L47.0297 80.7812L38.6139 81.4062L27.2277 82.1875L19.3069 82.8125L12.2112 83.2812L8.74588 83.5937H5.9406L3.79538 82.8125L2.31023 81.875L1.15512 80.625L0.330033 79.0625L0 77.5V76.0937L0.49505 73.75L2.47525 67.6562L4.12542 63.125L6.10562 58.5937L7.9208 54.8437L9.73598 51.5625L11.7162 48.5937L13.6964 46.0937L15.6766 43.9062L17.4918 42.3437L19.802 40.7812L22.6073 39.5312L24.4225 39.0625Z" fill="#2E2E2E"/>
<path d="M72.4428 41.0938H74.588L81.6837 43.5937L89.1095 46.25L94.72 48.2812L97.3603 49.2187L102.311 50.9375L104.621 51.875L105.281 52.9687V54.375L104.291 56.25L101.816 60L100.496 62.0312L98.0204 65.7812L95.8752 69.0625L93.895 72.0312L91.7497 75.3125L89.2745 79.0625L84.9841 85.625L82.5088 89.375L81.3537 90.7812L80.3636 91.25L79.0435 91.0937L72.4428 88.75L57.0963 83.2812L54.126 82.1875L53.9609 81.875L62.3768 81.4062L67.3273 80.9375L69.9676 80.3125L71.6177 79.375L72.7728 78.4375L73.9279 76.875L74.753 75.3125L75.0831 74.0625V70.9375L74.423 68.9062L73.4329 67.3437L72.1128 65.9375L70.1326 64.6875L68.1524 64.0625H63.5319L58.0864 64.375H56.1062L56.4362 63.5937L58.7464 60.1562L61.3867 56.0937L65.3471 50.1562L67.6573 46.5625L69.6375 43.5937L70.7926 42.0312L72.4428 41.0938Z" fill="#2E2E2E"/>
<path d="M47.524 0H52.1444L54.9497 0.46875L58.2501 1.5625L60.8903 2.96875L63.0355 4.53125L64.3557 5.625L65.5108 6.875L67.1609 9.0625L68.4811 11.5625L69.6362 14.6875L69.9662 16.875V20.9375L69.6362 23.125L68.3161 26.875L66.9959 29.2187L65.6758 30.9375L63.8606 32.8125L62.3755 34.0625L59.9002 35.625L56.7649 37.0312L53.9596 37.8125L51.3194 38.125H48.6791L45.8738 37.8125L42.5735 36.875L39.9332 35.625L37.623 34.2187L35.3127 32.3437L33.4976 30.3125L32.1774 28.2812L31.0223 25.9375L30.1972 23.4375L29.8672 21.5625V16.5625L30.3622 13.9062L31.5174 10.9375L32.8375 8.75L34.1576 7.03125L35.6428 5.46875L37.458 3.90625L39.9332 2.34375L41.9134 1.40625L44.7187 0.46875L47.524 0Z" fill="#2E2E2E"/>
<path d="M94.7197 74.2188L95.3797 74.375L96.5349 75.4687L97.1949 75.7812L100.495 76.0937L112.541 76.7187L121.452 77.3437L127.393 77.6562L130.033 77.9687L132.013 78.75L133.664 80.1562L134.654 81.5625L135.314 83.2812L135.479 84.0625V85.1562L134.819 87.3437L134.159 88.5937L133.169 89.6875L130.858 91.0937L129.208 91.4062H127.228L117.987 90.9375L105.116 90.1562L95.8748 89.5312L92.2444 89.2187L90.5943 88.5937L88.7791 87.3437L87.1289 85.7812L88.449 83.5937L90.2642 80.9375L92.0794 78.125L94.3896 74.5312L94.7197 74.2188Z" fill="#2E2E2E"/>
<path d="M73.7625 46.0938H75.2477L76.2378 46.875L76.4028 47.1875V48.125L75.7427 49.0625L75.0827 49.5312H73.7625L73.1025 49.2187L72.6074 48.2812V47.1875L73.4325 46.25L73.7625 46.0938Z" fill="#FEFEFE"/>
</svg>
