<svg width="200" height="200" viewBox="0 0 200 200" fill="none" xmlns="http://www.w3.org/2000/svg">
<path d="M189.736 80.6211H192.175L193.801 81.0811L195.427 82.0012L196.545 82.9213L197.764 84.1864L198.577 85.3364L199.39 86.9466L199.898 88.6717L200 89.2467V92.122L199.594 93.7321L198.781 95.5722L197.561 97.5274L196.24 99.5975L195.63 100.518L192.988 104.658L191.565 106.843L190.549 108.453L187.907 112.593L187.094 113.859L185.671 116.044L184.35 118.114L183.333 119.724L182.419 121.104L181.199 123.059L179.98 124.899L178.76 126.855L177.337 129.04L172.053 137.32L170.63 139.506L169.309 141.576L168.293 143.186L166.667 145.601L165.955 146.636L165.041 147.901H164.837L164.634 148.361L162.5 150.776L161.382 151.811L159.959 153.077L158.943 153.882L157.114 155.147L154.776 156.527L152.236 157.677L149.898 158.482L146.951 159.172L144.309 159.517L142.276 159.632H85.3659L80.3862 159.747L78.2521 160.092L76.3212 160.667L74.7968 161.357L73.1708 162.392L71.748 163.542L70.7318 164.577L70.122 165.152L69.4106 166.073L68.2927 167.453L67.8862 168.028L67.5813 167.913L66.87 166.993L35.874 131.915L35.1626 131.225L34.6545 130.65V130.42L34.248 130.19V129.96L33.8415 129.73V129.5L33.435 129.27V129.04L33.0285 128.81V128.58L32.622 128.35L31.809 127.43V127.2L31.4025 126.97V126.74L30.996 126.51V126.28L30.6911 126.165L30.183 125.474L29.7765 125.129V124.899L29.37 124.669V124.439L28.9635 124.209V123.979H28.7602L28.2521 123.404L28.0488 122.944L28.8618 122.024H29.0651V121.794H29.2683V121.564L29.6748 121.104H29.8781V120.874H30.0813V120.644L30.8944 119.839L33.8415 116.504L34.6545 115.699L38.4147 111.443H38.6179L38.8212 110.983H39.0244V110.753L39.8374 109.948L42.9879 106.383L43.8009 105.578L47.3578 101.553H47.561V101.323L48.374 100.518L49.6952 99.1375L51.4228 97.6424L53.2521 96.2623L54.9797 95.1122L57.5204 93.7321L60.5692 92.582L63.3131 91.8919L65.7521 91.5469L67.4797 91.4319H85.9757L88.9228 91.6619L91.4635 92.122L93.8009 92.812L96.3415 93.8471L99.2887 95.4572L102.134 97.2973L104.573 98.9075L104.98 99.1375L115.346 99.2525H146.342L147.968 99.4825L149.594 100.058L150.508 100.518L152.134 101.553L153.252 102.588L154.472 103.968L155.488 105.578L156.301 107.303L156.911 109.258L157.215 110.868L157.317 113.054L157.215 114.664L156.707 116.849L155.996 118.804L154.98 120.644L153.963 121.909L153.455 122.484L152.541 123.404L151.423 124.209L149.797 125.129L148.171 125.704L146.24 126.049H122.764L110.468 126.165L109.655 126.51L109.248 126.74L109.045 127.2L108.638 128.35V129.155L109.045 130.305L109.858 131.11L110.569 131.34L119.207 131.455H139.431L146.037 131.34L148.069 131.11L150 130.65L152.236 129.73L153.76 128.81L155.285 127.66L156.402 126.625L157.419 125.589L158.333 124.324L159.248 122.944L160.061 121.449L160.874 119.379L161.484 117.079L161.789 115.354L161.89 114.434L161.992 112.018L162.398 111.328L163.313 110.293L163.415 110.063H163.618L163.821 109.603L164.533 108.798L165.244 107.878L168.394 104.083L169.106 103.163L170.63 101.323L170.935 100.863H171.138L171.342 100.403L172.256 99.3675L172.968 98.4474L174.492 96.6073L175.61 95.2272L176.829 93.7321L177.541 92.927L178.252 92.0069L178.455 91.6619H178.659L178.862 91.2019L179.776 90.1668L180.488 89.2467L181.098 88.4417H181.301L181.504 87.9816L182.419 86.9466L183.13 86.0265L184.655 84.1864L185.366 83.2663L186.687 82.0012L188.211 81.0811L189.736 80.6211Z" fill="#2E2E2E"/>
<path d="M17.1748 118.688L17.6829 118.918L71.8496 180.218L71.6463 180.678L71.2398 181.253H71.0366V181.483H70.8333V181.713H70.6301V181.943H70.4268L70.2236 182.403H70.0203L69.8171 182.863L56.1992 198.274H55.9959V198.504L55.4878 199.08L55.1829 199.195L54.9797 199.655L54.6748 200L54.2683 199.885L0 138.47V138.125H0.203252L0.406504 137.665L0.813008 137.435V137.205L1.52439 136.515L1.62602 136.285H1.82927V136.055H2.03252V135.825H2.23577L2.43902 135.365L16.6667 119.264H16.8699L17.0732 118.803L17.1748 118.688Z" fill="#2E2E2E"/>
<path d="M69.6138 0H80.1829L85.4674 0.115009L85.5691 0.230017V20.1265L85.4674 20.2415L69.3089 20.3565L67.378 20.5865L65.4471 21.1616L63.8211 21.9666L62.2967 23.1167L61.1788 24.1518L60.2642 25.1869L59.2479 26.682L58.3333 28.5221L57.8252 29.7872L57.317 31.8574L57.1138 33.5825V35.8827L57.4187 38.0679L58.13 40.483L59.0447 42.4382L59.9593 43.8183L61.0772 45.1984L62.2967 46.3485L63.6178 47.2685L65.3455 48.1886L67.0731 48.7637L68.3943 48.9937L70.2235 49.1087L85.4674 49.2237L85.5691 49.3387V69.2352L85.4674 69.3502H67.6829L64.8374 69.0052L62.3983 68.4301L59.6544 67.5101L57.4187 66.475L55.0813 65.2099L53.252 63.9448L51.626 62.6797L50 61.1846L48.9837 60.1495L48.3739 59.5745V59.3445H48.1707V59.1144H47.9674L47.2561 58.1944L46.0365 56.6993L44.5122 54.3991L43.3943 52.4439L42.1748 49.9137L41.2601 47.6136L40.5487 45.4284L39.939 43.0132L39.4309 40.138L39.126 37.2628V32.2024L39.5325 28.6371L40.1422 25.6469L40.9552 22.7717L41.9715 20.0115L43.2926 17.1363L44.4105 15.1811L45.8333 12.996L46.1382 12.5359H46.3414L46.5447 12.0759L47.6626 10.6958L49.3902 8.74066L50.5081 7.70558L52.2357 6.21047L54.4715 4.60035L57.2154 2.99022L59.7561 1.84014L62.1951 1.03508L65.1422 0.345026L66.9715 0.115009L69.6138 0Z" fill="#2E2E2E"/>
<path d="M150.203 34.7324H150.813L152.541 36.2275L154.065 37.2626L155.59 38.1827L157.012 38.8727L159.553 39.6778L161.89 40.1378L163.516 40.2528H164.736L166.87 40.0228L168.903 39.5628L171.037 38.8727L173.476 37.6076L175.203 36.4576L176.321 35.5375L177.134 34.7324L178.151 34.8474L180.691 35.9975L183.232 37.3776L185.061 38.6427L186.586 39.9078L187.703 40.9429L189.228 42.668L190.041 43.8181L191.057 45.5432L191.87 47.2684L192.581 49.4535L192.988 51.5237L193.191 54.2839V69.235L193.09 69.35L135.773 69.465L134.96 69.35L134.858 69.12V54.0539L135.061 51.6387L135.569 49.2235L136.179 47.3834L137.195 45.1982L138.212 43.5881L139.431 41.978L140.447 40.8279L141.565 39.7928L142.988 38.6427L145.021 37.2626L147.256 35.9975L149.695 34.9624L150.203 34.7324Z" fill="#2E2E2E"/>
<path d="M163.211 0H164.939L166.768 0.230017L168.496 0.690052L170.122 1.3801L172.256 2.6452L173.679 3.79528L175 5.17539L175.711 5.98045L176.728 7.47556L177.642 9.20069L178.455 11.1558L178.963 12.881L179.37 15.1811L179.471 16.2162V18.8614L179.167 21.1616L178.658 23.2317L177.947 25.1869L177.134 26.797L176.118 28.4071L175.203 29.6722L174.39 30.4773L173.171 31.6274L171.545 32.7775L169.614 33.8125L167.581 34.5026L165.142 34.9626H162.805L160.366 34.5026L158.74 33.9275L157.114 33.1225L155.996 32.4324L154.675 31.3974L153.354 30.1323L152.642 29.3272L151.524 27.7171L150.508 25.992L149.695 24.0368L149.085 21.9666L148.679 19.6665L148.577 18.5164V16.6763L148.78 14.6061L149.289 12.1909L149.898 10.3508L150.813 8.39563L151.829 6.78551L152.744 5.52041L153.76 4.37033L155.081 3.22024L156.504 2.18516L158.13 1.26509L159.959 0.575043L161.992 0.115009L163.211 0Z" fill="#2E2E2E"/>
<path d="M90.4473 0H97.5612L100.407 0.115009V20.1265L100.305 20.2415H90.3457V0.115009L90.4473 0Z" fill="#2E2E2E"/>
<path d="M90.3457 49.2236H100.305L100.407 49.3386V69.2351L100.305 69.3501L92.3782 69.4652H90.6506L90.3457 69.3501V49.2236Z" fill="#2E2E2E"/>
<path d="M115.854 3.4502H122.663L123.577 3.5652L124.593 4.25526L125.203 5.29033L125.305 5.75037V7.01546L124.898 7.93553L124.492 8.51057L123.78 8.97061L122.256 9.20063H120.02L119.817 9.31564L121.138 12.3059L121.646 13.801V14.8361L121.138 15.9861L120.935 16.3312H120.732V16.5612L119.817 17.0212L119.106 17.1362H111.687L110.772 16.7912L109.959 15.9861L109.553 15.0661L109.451 14.721V13.916L109.756 12.8809L110.366 12.0758L111.382 11.5008H115.041L113.923 8.8556L113.211 7.01546L113.11 5.98039L113.516 4.8303L114.024 4.14025L114.736 3.68021L114.939 3.5652L115.854 3.4502Z" fill="#2E2E2E"/>
<path d="M111.382 52.3291H119.614L120.528 52.7891L121.138 53.3642L121.545 54.2842L121.646 54.7443V55.5493L121.24 56.8144L119.715 60.2647H123.069L124.085 60.6097L124.797 61.2998L125.305 62.4499V63.715L124.797 64.865L123.984 65.6701L123.272 65.9001H115.041L114.024 65.3251V65.0951H113.821L113.313 64.175L113.11 63.3699L113.211 62.4499L113.719 61.0698L114.837 58.5396L115.041 57.9645H111.585L110.772 57.6195L109.959 56.8144L109.553 55.8944L109.451 55.5493V54.7443L109.858 53.5942L110.264 53.0192L111.077 52.4441L111.382 52.3291Z" fill="#2E2E2E"/>
</svg>
