<svg width="200" height="200" viewBox="0 0 200 200" fill="none" xmlns="http://www.w3.org/2000/svg">
<path d="M146.961 27.6729H147.119L147.277 37.7357V47.4842L147.119 89.4653L145.541 90.0942L139.858 91.981L134.017 93.8678L106.077 103.145H105.919V41.3521L111.918 39.3081L118.706 37.1068L125.178 34.9056L130.86 33.0188L138.595 30.503L144.278 28.6162L146.961 27.6729Z" fill="#2E2E2E"/>
<path d="M53.0386 27.6729L54.4593 28.1445L60.7734 30.1886L66.4561 32.0754L71.981 33.9622L78.7686 36.1634L84.2935 38.0502L89.5027 39.7798L94.0804 41.3521L94.2383 41.5093V103.145L92.5019 102.673L86.0299 100.472L78.7686 98.1131L53.1964 89.6225L53.0386 89.4653V27.6729Z" fill="#2E2E2E"/>
<path d="M105.919 125.629L107.34 126.101L113.181 127.987L124.546 131.761L130.545 133.805L146.646 139.151L147.119 139.465V200L145.383 199.528L138.911 197.327L133.228 195.44L125.493 192.924L119.021 190.723L112.707 188.679L107.024 186.792L105.919 186.321V125.629Z" fill="#2E2E2E"/>
<path d="M94.0804 125.629H94.2383V186.163L93.6068 186.635L86.8192 188.836L54.1435 199.686L53.0386 200V139.308L59.5106 137.107L79.4001 130.503L86.1877 128.302L91.8705 126.415L94.0804 125.629Z" fill="#2E2E2E"/>
<path d="M0.157853 125.629L5.68272 127.516L11.3654 129.402L17.206 131.289L28.5714 135.063L34.5699 137.107L40.2526 138.994L41.0418 139.308L41.1997 155.346V182.233L41.0418 200L27.3086 195.44L20.9945 193.396L14.9961 191.352L8.20837 189.151L3.63062 187.579L2.05209 186.635L0.789266 185.22L0.157853 183.805L0 178.145V125.786L0.157853 125.629Z" fill="#2E2E2E"/>
<path d="M199.526 125.786H200V183.176L199.684 184.434L198.579 186.163L196.843 187.421L194.633 188.208L159.116 200L158.958 199.843V139.465L159.274 139.151L170.639 135.377L176.48 133.491L182.952 131.289L188.634 129.402L195.896 127.044L199.526 125.786Z" fill="#2E2E2E"/>
<path d="M152.802 97.6416L153.591 97.7988L174.428 104.717L180.742 106.761L187.214 108.962L197.632 112.421L199.527 113.208V113.679L196.37 114.623L190.529 116.51L185.004 118.396L178.216 120.598L172.534 122.484L167.009 124.371L162.115 125.943L153.591 128.774H152.328L145.857 126.572L139.069 124.371L133.544 122.484L126.756 120.283L121.074 118.396L115.075 116.352L108.287 114.151L106.235 113.522V113.208L112.707 111.006L132.123 104.56L138.911 102.359L145.383 100.157L152.644 97.7988L152.802 97.6416Z" fill="#2E2E2E"/>
<path d="M99.2894 0H100.394L103.551 0.786164L114.917 4.55975L120.442 6.44654L127.229 8.6478L144.278 14.3082L146.645 15.2516L146.803 15.566L140.331 17.6101L134.649 19.4969L128.65 21.5409L121.862 23.7421L116.18 25.6289L110.655 27.5157L100.71 30.8176H99.4473L93.4489 28.7736L82.0834 25L75.7693 22.956L53.512 15.566L53.1963 15.2516L62.9832 11.9497L91.3968 2.51572L98.1845 0.314465L99.2894 0Z" fill="#2E2E2E"/>
<path d="M46.8821 97.6416L48.4607 98.1133L54.3012 100L83.6619 109.749L89.6603 111.793L93.4488 113.05L93.7645 113.522L92.5017 113.994L89.976 114.78L84.1355 116.667L47.6714 128.774H46.5664L35.201 125L29.3604 123.113L1.4204 113.837L0.31543 113.522V113.208L15.1536 108.176L21.9413 105.975L46.5664 97.7988L46.8821 97.6416Z" fill="#2E2E2E"/>
</svg>
