<svg width="200" height="200" viewBox="0 0 200 200" fill="none" xmlns="http://www.w3.org/2000/svg">
<path d="M95.5078 0H104.98L105.371 0.195312L109.473 0.878906L113.379 1.85547L115.723 2.63672L118.457 3.71094L121.875 5.37109L123.438 6.25L125.684 7.61719L127.051 8.59375L129.102 10.1562L130.078 10.9375L131.25 12.0117L133.203 13.7695L133.887 14.5508L135.352 16.1133L136.23 17.1875L137.5 18.8477L138.77 20.6055L139.941 22.4609L141.113 24.5117L141.895 26.0742L143.066 28.5156L144.336 31.9336L145.02 34.1797L145.801 37.4023L146.387 41.2109L146.582 43.457L146.68 45.1172V48.2422L146.387 52.2461L145.801 55.7617L145.312 58.0078L144.531 60.8398L143.164 64.5508L141.602 67.8711L140.625 69.7266L138.672 72.8516L137.305 74.707L136.328 75.9766L135.254 77.2461L134.082 78.5156L133.789 78.9062H133.594L133.398 79.2969L132.617 80.0781H132.422V80.2734L131.641 80.957L130.371 82.1289L129.297 83.0078L128.027 83.9844L126.27 85.2539L124.414 86.4258L122.07 87.793L119.336 89.1602L117.48 89.9414L113.965 91.2109L110.645 92.0898L108.301 92.5781L104.98 93.0664L102.344 93.2617H97.3633L94.7266 93.0664L90.4297 92.3828L86.6211 91.4062L84.2773 90.625L81.7383 89.6484L78.9062 88.2812L77.3438 87.5L75.0977 86.1328L74.0234 85.4492L72.2656 84.1797L70.2148 82.6172L68.6523 81.1523L67.8711 80.4688L66.6016 79.2969L65.7227 78.3203L64.6484 77.1484V76.9531H64.4531L63.3789 75.5859L62.1094 73.9258L60.9375 72.2656L58.8867 68.8477L57.4219 65.918L56.4453 63.5742L55.2734 60.2539L54.3945 56.8359L54.0039 54.8828L53.5156 51.4648L53.3203 48.7305V44.5312L53.5156 41.6992L54.1016 37.8906L54.6875 35.2539L55.4688 32.4219L56.6406 29.1992L57.4219 27.4414L58.5938 25L59.5703 23.2422L60.8398 21.1914L61.9141 19.6289L63.0859 18.0664L63.7695 17.1875L64.8438 15.918L66.0156 14.6484L66.2109 14.3555H66.4062L66.6016 13.9648L67.6758 12.8906L68.457 12.207L69.7266 11.0352L71.0938 9.96094L73.0469 8.49609L74.6094 7.42188L77.3438 5.76172L78.8086 4.98047L81.0547 3.90625L82.9102 3.125L86.2305 1.95312L89.6484 1.07422L92.0898 0.585938L95.4102 0.0976562L95.5078 0ZM114.844 28.2227L113.574 28.5156L112.402 29.1992L111.426 30.0781L110.352 31.4453L108.984 33.3008L107.422 35.3516L106.055 37.207L104.492 39.2578L103.125 41.1133L101.562 43.1641L100.195 45.0195L98.6328 47.0703L97.2656 48.9258L96.4844 50L96.3867 50.1953L95.9961 50L95.2148 49.2188L94.6289 48.7305L94.4336 48.4375H94.2383L94.043 48.0469H93.8477L93.6523 47.6562H93.457L93.2617 47.2656H93.0664L92.8711 46.875H92.6758L92.4805 46.4844H92.2852L92.0898 46.0938H91.8945L91.6992 45.7031H91.5039L91.3086 45.3125H91.1133L90.918 44.9219H90.7227L90.5273 44.5312H90.332L90.1367 44.1406H89.9414L89.7461 43.75H89.5508L89.3555 43.3594L88.5742 42.6758L87.5977 41.7969L86.6211 41.2109L85.4492 40.8203L84.082 40.7227L82.8125 40.918L81.4453 41.6016L80.1758 42.5781L79.1992 43.9453L78.7109 44.9219L78.418 46.1914V47.4609L78.8086 48.7305L79.2969 49.707L80.3711 50.9766L92.8711 63.4766L94.1406 64.3555L95.4102 64.8438L95.8984 64.9414H97.8516L99.3164 64.4531L100.293 63.8672L101.27 62.9883L102.148 61.9141L103.516 60.0586L105.078 58.0078L106.445 56.1523L108.008 54.1016L109.375 52.2461L110.938 50.1953L112.305 48.3398L113.867 46.2891L115.234 44.4336L116.797 42.3828L118.164 40.5273L119.434 38.8672L120.703 37.1094L121.289 35.8398L121.582 34.4727V33.5938L121.191 32.0312L120.605 30.957L119.434 29.6875L118.359 29.0039L117.09 28.418L116.113 28.2227H114.844Z" fill="#2E2E2E"/>
<path d="M74.1211 106.641H125.684L126.758 106.836L127.93 107.324L129.004 108.105L129.688 108.789L130.273 109.668L130.664 110.449L130.957 111.621L131.055 113.184V191.699L130.957 200H68.9453L68.8477 195.996V120.117L68.9453 112.207L69.2383 110.645L69.9219 109.277L70.5078 108.496H70.7031L70.8984 108.105L71.875 107.422L72.8516 106.934L74.1211 106.641Z" fill="#2E2E2E"/>
<path d="M176.758 81.543H180.078L182.324 81.8359L184.375 82.3242L186.133 82.9102L187.891 83.6914L189.648 84.668L191.309 85.8398L192.285 86.6211L193.262 87.5L194.531 88.7695L195.41 89.8438L196.582 91.5039L197.754 93.5547L198.633 95.6055L199.219 97.3633L199.805 99.8047H200V138.281H199.805L199.414 140.527L198.73 143.066L197.949 145.215L196.582 148.047L195.508 149.805L194.531 151.172L193.555 152.441L192.188 153.906L190.82 155.273H190.625V155.469L189.258 156.543L187.5 157.812L185.352 159.082L182.91 160.254L180.469 161.133L178.125 161.719L175.879 162.109L174.023 162.305L171.875 162.402H156.934V194.629L156.738 195.703L156.25 196.973L155.371 198.145L154.492 198.926L153.32 199.609L152.246 200H142.578V137.109L142.773 135.742L143.164 134.668L143.848 133.594L144.238 133.105L145.02 132.422L146.191 131.738L147.07 131.445L147.559 131.348L156.641 131.25L156.738 130.762V105.957L156.836 101.953L157.129 99.4141L157.715 96.9727L158.398 95.0195L159.277 93.0664L160.254 91.4062L161.23 90.0391L162.012 89.0625L163.086 87.8906L163.965 87.0117L165.039 86.1328L166.504 85.0586L167.969 84.1797L169.531 83.3984L170.898 82.8125L172.754 82.2266L175 81.7383L176.758 81.543Z" fill="#2E2E2E"/>
<path d="M19.9219 81.543H23.1445L25.4883 81.8359L27.6367 82.3242L29.7852 83.1055L32.0312 84.1797L33.8867 85.3516L35.1562 86.3281L36.1328 87.207L36.9141 87.8906L38.1836 89.2578L39.5508 91.1133L40.4297 92.5781L41.6016 95.0195L42.4805 97.6562L42.8711 99.6094L43.0664 101.367L43.1641 103.32V131.348H52.1484L53.5156 131.641L54.7852 132.324L55.7617 133.203L56.543 134.18L57.1289 135.449L57.3242 136.328V200H47.7539L45.8984 199.219L44.9219 198.438L44.043 197.461L43.2617 195.898L43.0664 195.02L42.9688 192.871V162.5L39.4531 162.402H27.7344L25.5859 162.305L22.5586 161.914L19.4336 161.133L17.0898 160.254L14.6484 159.082L13.0859 158.203L11.5234 157.129L10.2539 156.152L8.30078 154.395L7.22656 153.32L6.54297 152.539L5.37109 151.074L4.00391 149.023L3.02734 147.363L1.95312 145.02L1.17188 142.871L0.390625 139.746L0 137.793V100.488L0.878906 96.9727L1.5625 95.0195L2.53906 92.9688L3.71094 91.0156L4.6875 89.7461L5.27344 88.9648H5.46875L5.66406 88.5742L7.61719 86.6211L9.57031 85.1562L11.3281 84.082L13.5742 83.0078L15.918 82.2266L18.1641 81.7383L19.9219 81.543Z" fill="#2E2E2E"/>
<path d="M176.562 34.4727H180.176L182.324 34.7656L184.473 35.2539L186.426 35.9375L188.379 36.8164L189.746 37.5977L191.309 38.6719L192.285 39.4531L193.262 40.332L194.824 41.8945L195.898 43.2617L196.875 44.7266L197.852 46.4844L198.73 48.5352L199.316 50.3906L199.805 52.4414L200 52.5391V59.375L199.805 59.5703L199.219 62.1094L198.438 64.3555L197.461 66.4062L196.387 68.1641L195.508 69.3359L194.629 70.4102L194.043 71.0938L193.262 71.7773L192.578 72.4609L191.309 73.4375L189.844 74.4141L188.281 75.293L186.621 76.0742L183.984 76.9531L181.543 77.4414L179.883 77.6367H176.855L175.195 77.4414L173.242 77.0508L171.289 76.4648L169.824 75.8789L168.164 75.0977L166.406 74.0234L164.746 72.7539L163.574 71.6797L161.914 70.0195L160.449 68.0664L159.57 66.6016L158.789 65.1367L157.91 62.8906L157.324 60.8398L156.934 58.5938L156.836 57.5195V54.6875L157.129 52.3438L157.52 50.5859L158.008 48.9258L158.984 46.582L159.766 45.1172L160.742 43.6523L161.914 42.0898L163.379 40.5273L164.648 39.3555L166.504 37.9883L168.359 36.9141L169.922 36.1328L171.777 35.4492L173.926 34.8633L176.562 34.4727Z" fill="#2E2E2E"/>
<path d="M19.7266 34.4727H23.2422L26.0742 34.8633L28.5156 35.5469L30.6641 36.4258L32.5195 37.4023L33.9844 38.3789L35.2539 39.3555L36.6211 40.5273L37.3047 41.2109L37.9883 41.9922L39.0625 43.3594L40.0391 44.8242L41.2109 47.0703L41.9922 49.0234L42.5781 50.9766L42.9688 53.0273L43.1641 55.1758V57.0312L42.8711 59.668L42.3828 61.9141L41.6016 64.1602L40.918 65.625L40.2344 66.9922L39.2578 68.457L38.4766 69.5312L37.5977 70.5078L37.5 70.7031H37.3047L37.1094 71.0938L36.3281 71.875L35.5469 72.5586L34.2773 73.5352L32.8125 74.5117L30.8594 75.5859L28.418 76.5625L26.2695 77.1484L24.0234 77.5391L23.0469 77.6367H19.9219L18.2617 77.4414L15.918 76.9531L13.5742 76.1719L11.1328 75L9.66797 74.1211L8.30078 73.1445L6.83594 71.875L5.27344 70.3125L4.19922 68.9453L3.22266 67.5781L2.24609 65.8203L1.46484 64.1602L0.683594 61.8164L0 58.8867V53.125L0.195312 52.4414L0.78125 49.9023L1.46484 47.9492L2.53906 45.7031L3.71094 43.75L4.88281 42.2852L5.56641 41.5039L6.05469 40.918H6.25L6.44531 40.5273L7.22656 39.8438L8.10547 39.0625L9.76562 37.8906L11.6211 36.8164L13.2812 36.0352L15.1367 35.3516L17.0898 34.8633L19.7266 34.4727Z" fill="#2E2E2E"/>
</svg>
