<svg width="200" height="200" viewBox="0 0 200 200" fill="none" xmlns="http://www.w3.org/2000/svg">
<path d="M161.769 57.1113H183.485L186.346 57.3344L188.427 57.7806L190.507 58.5614L192.198 59.3422L194.278 60.6808L195.969 62.1308L197.399 63.804L198.7 65.9234L199.48 67.9312L199.87 69.939L200 72.393V175.014L199.87 187.173L199.48 189.069L198.83 190.965L197.789 192.75L196.619 194.312L195.579 195.427L194.408 196.431L192.718 197.546L190.897 198.439L188.817 199.22L186.346 199.777L184.265 200H145.124V70.4967L145.514 68.3774L146.164 66.5926L147.074 64.8079L148.244 63.2463L149.285 62.1308L150.325 61.1269L151.756 60.123L153.056 59.3422L154.876 58.4499L157.347 57.6691L159.038 57.3344L161.769 57.1113Z" fill="#2E2E2E"/>
<path d="M87.3864 85.666H111.834L114.695 85.8891L116.775 86.3353L118.726 87.0046L120.676 87.8969L122.107 88.7893L123.407 89.6816L124.317 90.574L125.618 91.9125L126.788 93.5857L127.438 94.8127L128.089 96.4859L128.479 98.0475L128.609 99.2745V199.888L128.479 200H70.6113V99.8322L70.8714 97.7129L71.5216 95.5935L72.5619 93.4742L73.7323 91.9125L74.9026 90.574L76.5931 89.1239L78.8038 87.7854L81.0144 86.7815L83.3552 86.1122L85.5658 85.7776L87.3864 85.666Z" fill="#2E2E2E"/>
<path d="M16.3849 107.083H50.8453L54.0962 107.195L54.2263 107.864L54.0962 199.888L53.9662 200H15.6047L13.394 199.777L11.0533 199.219L8.71261 198.327L6.76203 197.211L5.07152 195.984L3.64109 194.646L2.73082 193.53L1.69051 191.969L0.910273 190.407L0.390117 188.734L0.130039 187.395L0 185.945V120.915L0.260078 118.795L1.04031 116.453L1.95059 114.668L2.86086 113.441L4.03121 112.103L4.55137 111.545H4.81144L5.07152 111.099L6.50195 110.095L8.19246 109.091L10.143 108.198L12.4837 107.529L14.6944 107.195L16.3849 107.083Z" fill="#2E2E2E"/>
<path d="M96.8789 0H102.471L111.183 0.111545L129.389 0.22309L134.07 0.334635L135.37 0.557724L136.931 1.11545L138.491 2.00781V2.2309L139.012 2.45399L140.052 3.56944L140.962 5.13107L141.352 6.69269L141.482 12.3815L141.612 25.0976V38.483L141.092 40.0446L140.182 41.4947L138.751 42.8332L137.451 43.6141L136.021 44.1718L134.59 44.5064H131.859L130.169 44.0602L128.868 43.5025L127.568 42.6102L126.268 41.3832L125.227 39.5984L124.967 38.5945L124.837 37.5906L124.707 26.9939L124.837 26.3246H124.577L124.317 26.7708L122.757 28.667L121.976 29.5594L120.676 31.0095L118.985 32.9057L117.425 34.4674L116.255 35.6944L114.564 37.3675L112.484 39.2638L111.963 39.8215H111.703L111.443 40.2677L107.802 43.391L106.762 44.1718L105.331 45.3988L104.291 46.1796L102.991 47.1835L101.17 48.522L99.4796 49.749L97.399 51.1991L94.018 53.43L91.5473 54.9916L89.3366 56.3302L87.256 57.5572L83.7449 59.565L80.3639 61.3497L78.0232 62.5767L75.5525 63.8037L73.2118 64.9191L70.3509 66.2577L66.8399 67.8193L62.9387 69.4925L58.6474 71.1656L54.2261 72.8388L48.6344 74.7351L42.9127 76.5198L38.4913 77.7468L35.2404 78.5276L34.4601 78.6392H32.1194L30.559 78.3045L28.7384 77.5237L27.1779 76.2967L26.3977 75.5159L25.3574 73.7312L24.9673 72.058V71.0541L25.3574 69.2694L26.3977 67.4847L27.5681 66.2577L28.9985 65.2538L30.819 64.5845L36.8008 63.0229L42.6526 61.2382L47.204 59.6765L50.3249 58.5611L55.5265 56.5533L57.7371 55.6609L59.9478 54.657L62.0284 53.7646L65.2794 52.3146L68.2703 50.8645L70.2209 49.8606L73.2118 48.2989L76.2027 46.6258L79.3236 44.841L81.4042 43.5025L83.2248 42.3871L85.4354 40.937L87.256 39.71L88.9465 38.483L90.3769 37.4791L91.8073 36.3636L92.8477 35.5828L94.148 34.5789L95.8386 33.2404L99.8698 29.7825L100.78 28.8901L102.471 27.3285L103.641 26.1015L105.331 24.4283L106.632 22.9782L108.062 21.4166L110.663 18.2934L112.744 15.5047L113.394 14.5008L112.874 14.6124L99.7397 14.5008L96.2287 14.3893L94.148 13.9431L92.7176 13.2738L91.4172 12.2699L90.3769 11.266L89.3366 9.48132L88.9465 8.14278V6.4696L89.4666 4.68489L90.3769 3.12326L91.8073 1.78472L93.2378 0.892359L95.0583 0.22309L96.8789 0Z" fill="#2E2E2E"/>
</svg>
