<svg width="200" height="200" viewBox="0 0 200 200" fill="none" xmlns="http://www.w3.org/2000/svg">
<path d="M98.9062 0H100.938L102.812 0.625L105 2.03125L108.125 4.21875L111.562 6.5625L116.562 10L120.156 12.5L124.062 15.1562L127.656 17.6562L130.625 19.6875L133.125 21.4062L136.25 23.5938L140 26.0938L141.719 27.3438L144.688 29.375L147.188 31.0938L150.312 33.2812L152.188 34.5312L155.312 36.7188L161.25 40.7812L164.375 42.9688L167.812 45.3125L175.781 50.7812L178.906 52.9688L184.844 57.0312L188.438 59.5312L190.938 61.25L194.375 63.5938L197.5 65.7812L198.906 67.1875L199.688 68.75L200 70.3125V191.875L199.531 194.375L198.906 195.781L197.812 197.344L196.562 198.438L194.375 199.531L193.125 199.844L191.406 200H175L174.844 99.2188L174.531 97.5L173.906 95.9375L172.656 94.2188L171.094 92.9688L169.844 92.3438L167.969 91.875H31.7188L30 92.3438L28.4375 93.2812L27.0312 94.5312L25.9375 96.25L25.3125 97.8125L25.1562 98.5938L25 199.844L24.8438 200H8.125L6.09375 199.688L4.375 199.062L2.65625 197.812L1.40625 196.406L0.46875 194.531L0.15625 193.438L0 192.188V70.3125L0.46875 68.2812L1.25 67.0312L2.65625 65.625L5.625 63.5938L7.1875 62.5L10.625 60.1562L13.75 57.9688L16.0938 56.4062L19.6875 53.9062L22.1875 52.1875L25.7812 49.6875L29.2188 47.3438L34.2188 43.9062L37.8125 41.4062L40.7812 39.375L44.375 36.875L46.25 35.625L49.375 33.4375L67.3438 21.0938L70 19.2188L73.9062 16.5625L77.5 14.0625L85.4688 8.59375L89.0625 6.09375L92.5 3.75L96.0938 1.25L98.2812 0.15625L98.9062 0Z" fill="#2E2E2E"/>
<path d="M78.75 108.281H93.5938L93.75 108.437L93.9062 115.625L94.375 117.187L95.3125 118.594L96.7188 119.844L98.2812 120.469L99.0625 120.625H100.781L102.656 120.156L104.062 119.219L105.312 117.812L105.938 116.094L106.094 115.156L106.25 108.281H120.938L122.812 108.75L124.375 110.156L124.844 111.25L125 112.031V145.937L124.688 147.344L123.75 148.75L122.344 149.687L120.625 150H79.0625L77.6562 149.687L76.0938 148.75L75.3125 147.5L75 146.25V112.187L75.3125 110.937L75.7812 110L76.5625 109.219L77.5 108.594L78.75 108.281Z" fill="#2E2E2E"/>
<path d="M49.6875 158.281H64.5312L64.6875 165.469L65.3125 167.344L66.25 168.75L67.5 169.844L69.0625 170.469L69.8438 170.625H71.5625L73.4375 170.156L74.8438 169.219L76.0938 167.812L76.7188 166.25L76.875 165.469L77.0312 158.281H91.7188L93.2812 158.594L94.6875 159.531L95.4688 160.781L95.7812 162.031V195.937L95.4688 197.5L94.8438 198.437L93.5938 199.531L92.8125 199.844L91.7188 200H49.8438L48.4375 199.687L47.1875 198.906L46.25 197.812L45.9375 196.875L45.7812 195.781V163.125L45.9375 161.406L46.7188 159.844L47.9688 158.75L48.75 158.437L49.6875 158.281Z" fill="#2E2E2E"/>
<path d="M108.125 158.281H122.812L122.969 158.594V164.531L123.281 166.406L123.906 167.812L124.844 169.062L126.406 170.156L128.125 170.625H129.844L131.719 170.156L133.281 169.219L134.375 167.812L135 166.406L135.312 165L135.469 158.281H150.156L151.562 158.594L152.969 159.531L153.75 160.625L154.062 161.562L154.219 166.406V195.156L153.906 197.187L153.281 198.437L152.188 199.375L151.094 199.844L150 200H108.281L106.875 199.687L105.469 198.906L104.531 197.656L104.219 196.562V161.719L104.844 160.156L105.625 159.219L107.188 158.437L108.125 158.281Z" fill="#2E2E2E"/>
</svg>
