<svg width="544" height="589" viewBox="0 0 544 589" fill="none" xmlns="http://www.w3.org/2000/svg">
<circle cx="272" cy="316.326" r="272" fill="#1F2428"/>
<path d="M317.305 424.726C317.305 425.979 318.182 426.981 319.936 427.733C321.94 428.484 323.819 428.86 325.573 428.86V436H271.834V422.847C256.803 435.123 238.89 441.261 218.096 441.261C199.557 441.261 183.022 437.503 168.492 429.987C153.961 422.471 142.562 411.824 134.295 398.045C126.027 384.266 121.893 368.357 121.893 350.319C121.893 332.031 126.027 315.872 134.295 301.842C142.813 287.562 154.337 276.539 168.867 268.773C183.649 260.756 200.058 256.747 218.096 256.747C238.89 256.747 256.803 262.635 271.834 274.41V165.43C271.834 164.177 270.957 163.175 269.204 162.424C267.45 161.672 265.696 161.296 263.943 161.296V154.156H325.197V161.296C323.443 161.296 321.689 161.672 319.936 162.424C318.182 163.175 317.305 164.177 317.305 165.43V424.726ZM220.351 401.051C230.121 401.051 239.015 398.797 247.032 394.287C255.3 389.778 261.688 383.765 266.197 376.249C270.958 368.483 273.338 360.341 273.338 351.823C273.338 336.54 268.327 324.014 258.306 314.243C248.535 304.222 235.884 299.212 220.351 299.212C204.818 299.212 192.041 304.097 182.02 313.868C172.25 323.388 167.364 335.789 167.364 351.071C167.364 366.353 172.375 378.504 182.396 387.523C192.668 396.542 205.319 401.051 220.351 401.051ZM395.452 440.134C386.183 440.134 378.416 437.127 372.153 431.115C366.14 424.852 363.134 417.085 363.134 407.816C363.134 399.047 366.266 391.657 372.529 385.644C378.792 379.381 386.433 376.249 395.452 376.249C404.221 376.249 411.611 379.381 417.624 385.644C423.887 391.657 427.019 399.047 427.019 407.816C427.019 417.085 423.887 424.852 417.624 431.115C411.611 437.127 404.221 440.134 395.452 440.134Z" fill="white"/>
</svg>
